HIERARCHY
ROOT Hips
{
	OFFSET -0.001795 -0.223333 0.028219
	CHANNELS 6 Xposition Yposition Zposition Zrotation Yrotation Xrotation 
	JOINT LeftUpLeg
	{
		OFFSET 0.069520 -0.091406 -0.006815
		CHANNELS 3 Zrotation Yrotation Xrotation
		JOINT LeftLeg
		{
			OFFSET 0.034277 -0.375199 -0.004496
			CHANNELS 3 Zrotation Yrotation Xrotation
			JOINT LeftFoot
			{
				OFFSET -0.013596 -0.397961 -0.043693
				CHANNELS 3 Zrotation Yrotation Xrotation
				JOINT LeftToe
				{
					OFFSET 0.026358 -0.055791 0.119288
					CHANNELS 3 Zrotation Yrotation Xrotation
					End Site
					{
						OFFSET 0.000000 0.000000 0.000000
					}
				}
			}
		}
	}
	JOINT RightUpLeg
	{
		OFFSET -0.067670 -0.090522 -0.004320
		CHANNELS 3 Zrotation Yrotation Xrotation
		JOINT RightLeg
		{
			OFFSET -0.038290 -0.382569 -0.008850
			CHANNELS 3 Zrotation Yrotation Xrotation
			JOINT RightFoot
			{
				OFFSET 0.015774 -0.398415 -0.042312
				CHANNELS 3 Zrotation Yrotation Xrotation
				JOINT RightToe
				{
					OFFSET -0.025372 -0.048144 0.123348
					CHANNELS 3 Zrotation Yrotation Xrotation
					End Site
					{
						OFFSET 0.000000 0.000000 0.000000
					}
				}
			}
		}
	}
	JOINT Spine
	{
		OFFSET -0.002533 0.108963 -0.026696
		CHANNELS 3 Zrotation Yrotation Xrotation
		JOINT Spine1
		{
			OFFSET 0.005487 0.135180 0.001092
			CHANNELS 3 Zrotation Yrotation Xrotation
			JOINT Spine2
			{
				OFFSET 0.001457 0.052922 0.025425
				CHANNELS 3 Zrotation Yrotation Xrotation
				JOINT Neck
				{
					OFFSET -0.002778 0.213870 -0.042857
					CHANNELS 3 Zrotation Yrotation Xrotation
					JOINT Head
					{
						OFFSET 0.005152 0.064970 0.051349
						CHANNELS 3 Zrotation Yrotation Xrotation
						End Site
						{
							OFFSET 0.000000 0.000000 0.000000
						}
					}
				}
				JOINT LeftShoulder
				{
					OFFSET 0.078845 0.121749 -0.034090
					CHANNELS 3 Zrotation Yrotation Xrotation
					JOINT LeftArm
					{
						OFFSET 0.090977 0.030469 -0.008868
						CHANNELS 3 Zrotation Yrotation Xrotation
						JOINT LeftForeArm
						{
							OFFSET 0.259612 -0.012772 -0.027456
							CHANNELS 3 Zrotation Yrotation Xrotation
							JOINT LeftHand
							{
								OFFSET 0.249234 0.008986 -0.001171
								CHANNELS 3 Zrotation Yrotation Xrotation
								End Site
								{
									OFFSET 0.000000 0.000000 0.000000
								}
							}
						}
					}
				}
				JOINT RightShoulder
				{
					OFFSET -0.081759 0.118833 -0.038615
					CHANNELS 3 Zrotation Yrotation Xrotation
					JOINT RightArm
					{
						OFFSET -0.096012 0.032551 -0.009143
						CHANNELS 3 Zrotation Yrotation Xrotation
						JOINT RightForeArm
						{
							OFFSET -0.253742 -0.013329 -0.021401
							CHANNELS 3 Zrotation Yrotation Xrotation
							JOINT RightHand
							{
								OFFSET -0.255298 0.007772 -0.005559
								CHANNELS 3 Zrotation Yrotation Xrotation
								End Site
								{
									OFFSET 0.000000 0.000000 0.000000
								}
							}
						}
					}
				}
			}
		}
	}
}
MOTION
Frames: 18
Frame Time: 0.050000
0.000000 0.946112 0.000000 2.384785 -1.804020 -3.718703 5.082776 -0.793224 -17.533058 -8.600058 3.086713 39.080759 5.755243 12.880453 5.828112 0.000000 0.000000 0.000000 -2.289992 1.320072 -15.642057 -0.303282 0.837710 16.851365 1.228389 -0.790712 7.097508 0.000000 0.000000 0.000000 4.273272 -1.102456 15.030161 0.155458 0.546620 -24.267899 -1.064514 1.703234 30.026515 5.860887 -2.064817 -24.317255 0.000000 0.000000 0.000000 -12.023012 3.545107 -2.239266 -63.140571 11.199475 -16.275911 -16.815947 -23.332655 4.858413 0.000000 0.000000 0.000000 10.159895 -3.119452 -1.754805 60.567274 -6.448349 -11.986590 24.674026 29.152233 7.911264 0.000000 0.000000 0.000000 
0.005562 0.945749 -0.024798 2.560164 -4.262217 -3.488948 6.409476 -0.362266 -12.316535 -10.072278 4.816458 43.631556 4.354871 10.413437 6.364635 0.000000 0.000000 0.000000 -2.889218 1.422135 -17.023184 0.285382 0.757512 16.573839 1.870481 0.998741 5.963429 0.000000 0.000000 0.000000 5.294600 -1.010935 12.762080 0.603198 0.360326 -23.357994 -2.754081 2.522613 28.721996 7.484196 -2.907941 -25.736914 0.000000 0.000000 0.000000 -9.205382 4.318246 -2.265274 -64.678726 12.685845 -17.229470 -18.611520 -21.515922 4.851346 0.000000 0.000000 0.000000 9.122585 -3.595696 -2.006184 60.009737 -12.436329 -14.657120 29.682896 25.081946 7.708540 0.000000 0.000000 0.000000 
0.012574 0.937300 -0.052684 2.715379 -4.592537 -4.924799 4.824644 -0.207118 -5.149040 -9.074842 4.501308 45.058703 3.267826 8.345463 5.762549 0.000000 0.000000 0.000000 -3.600684 1.289294 -16.493217 1.060545 0.464803 14.262065 1.972937 -0.256054 8.602880 0.000000 0.000000 0.000000 6.051677 -0.991483 11.971631 -1.013930 0.753083 -22.739326 -2.853671 0.522953 30.607187 8.481921 -3.401046 -29.664639 0.000000 0.000000 0.000000 -8.009374 1.460969 -0.660751 -64.713992 9.930000 -15.673240 -17.412631 -21.285661 4.642223 0.000000 0.000000 0.000000 9.237239 -6.695144 -3.622127 59.733528 -15.519450 -16.467240 26.988357 21.814647 5.923285 0.000000 0.000000 0.000000 
0.020596 0.928465 -0.085631 2.549543 -5.394545 -5.702493 1.876806 0.094540 0.843798 -6.056923 2.742032 41.668054 0.578448 3.003315 4.826730 0.000000 0.000000 0.000000 -3.241750 1.545799 -18.680007 1.404714 0.395953 13.988560 1.962240 -1.726859 11.335011 0.000000 0.000000 0.000000 6.406068 -1.016019 12.192861 -0.706272 0.648492 -22.436430 -4.248018 -1.640735 30.768182 7.986693 -3.777940 -28.457281 0.000000 0.000000 0.000000 -7.821681 2.388204 -0.815156 -66.033266 10.180056 -15.749052 -15.487647 -21.856207 4.507823 0.000000 0.000000 0.000000 7.700984 -6.731513 -3.651965 60.874947 -17.682840 -18.231626 26.010684 17.387717 4.267818 0.000000 0.000000 0.000000 
0.029935 0.916439 -0.127134 1.864440 -4.916175 -6.041768 0.727803 0.522466 5.534052 -4.104286 1.248893 33.970569 -0.150777 -0.268653 0.134079 0.000000 0.000000 0.000000 -3.369774 1.702743 -20.775430 2.026595 0.138400 11.254217 1.465826 -3.740173 13.945823 0.000000 0.000000 0.000000 6.485700 -1.043310 12.388440 0.216503 0.369576 -21.165307 -5.173257 -2.909557 29.918785 9.064181 -4.434617 -29.094052 0.000000 0.000000 0.000000 -9.156496 0.179758 0.255482 -63.077206 7.324040 -13.596199 -16.285601 -23.737323 5.084121 0.000000 0.000000 0.000000 9.486246 -8.494063 -4.883667 59.817487 -19.586949 -18.747022 24.610285 14.440315 3.215131 0.000000 0.000000 0.000000 
0.039426 0.905336 -0.175228 1.482200 -4.434662 -6.753271 -0.499017 0.672018 6.556307 -2.705155 0.480834 30.318417 1.327635 -0.102672 -7.146817 0.000000 0.000000 0.000000 -3.503273 1.795254 -22.283657 0.675734 0.289800 8.953317 1.334978 -3.654756 13.312457 0.000000 0.000000 0.000000 5.328313 -1.024517 13.595006 0.551239 0.294907 -21.420580 -5.285371 -4.980935 30.685744 11.310392 -5.911283 -29.776727 0.000000 0.000000 0.000000 -10.257960 -1.001096 1.059546 -61.114704 3.398198 -11.313303 -13.245499 -24.191282 4.523512 0.000000 0.000000 0.000000 9.425872 -8.765212 -5.195283 59.329523 -20.755378 -19.373730 23.019656 12.684713 2.518979 0.000000 0.000000 0.000000 
0.047285 0.901044 -0.224820 0.799527 -5.716391 -8.277986 0.197882 0.493100 4.976714 -3.911832 1.127573 30.620511 3.128123 4.109740 -8.495994 0.000000 0.000000 0.000000 -2.937156 1.994764 -22.774172 0.901241 0.208327 7.710854 0.698138 -4.603628 12.269692 0.000000 0.000000 0.000000 4.464548 -1.083956 16.577680 0.711231 0.202603 -21.029892 -4.400955 -4.411968 30.232731 11.005776 -5.763923 -29.553995 0.000000 0.000000 0.000000 -11.342428 -1.311183 1.272550 -59.610593 -0.392241 -9.306064 -11.776198 -25.563608 4.462643 0.000000 0.000000 0.000000 9.518915 -8.942053 -5.279900 60.635467 -20.465598 -19.729655 20.825448 12.104707 2.196501 0.000000 0.000000 0.000000 
0.052387 0.904958 -0.271098 0.620876 -6.941268 -9.289680 -0.661075 0.412456 3.970529 -4.383924 1.379662 28.581216 3.818736 6.099169 -8.457920 0.000000 0.000000 0.000000 -3.123222 2.068390 -23.338698 2.903264 0.072647 13.215827 -2.281531 -9.235787 8.916163 0.000000 0.000000 0.000000 3.562889 -0.983549 17.670929 0.195044 0.321048 -21.258042 -3.368878 -3.337568 31.405032 10.854733 -5.567301 -30.501140 0.000000 0.000000 0.000000 -12.040466 -2.017230 1.652267 -58.015039 -2.092010 -8.606650 -10.308471 -27.231179 4.436537 0.000000 0.000000 0.000000 10.647794 -7.394305 -4.770520 60.502502 -19.147085 -19.104954 20.581528 13.955987 2.618594 0.000000 0.000000 0.000000 
0.054822 0.916092 -0.314498 -0.036023 -7.804063 -9.665370 -0.123142 0.254160 2.465843 -5.159016 1.647092 26.338589 4.355338 8.337299 -5.163348 0.000000 0.000000 0.000000 -2.420164 2.275502 -23.648792 3.245634 0.474158 23.472800 -3.273918 -10.550040 6.723184 0.000000 0.000000 0.000000 4.267900 -1.060552 17.861217 -0.838803 0.572473 -20.296238 -2.421165 -2.247635 30.506006 10.053484 -5.052556 -29.906782 0.000000 0.000000 0.000000 -13.054568 -3.248570 2.191294 -57.599702 -1.884908 -8.696227 -8.475381 -27.646083 3.982895 0.000000 0.000000 0.000000 10.562657 -6.276811 -4.147865 61.569983 -16.564686 -18.053113 20.270017 16.221938 3.116347 0.000000 0.000000 0.000000 
0.054352 0.928209 -0.356532 -0.704534 -9.281647 -9.686699 0.348425 0.074568 0.538914 -5.348183 1.731549 24.283628 4.669906 9.477215 -3.488020 0.000000 0.000000 0.000000 -1.981172 2.136806 -21.346487 3.294585 1.301801 34.152485 -3.778452 -10.776767 3.977848 0.000000 0.000000 0.000000 4.588128 -1.040892 17.449373 -0.370099 0.371887 -19.475755 -2.411153 -0.241319 29.431769 10.301478 -4.862460 -30.144412 0.000000 0.000000 0.000000 -13.170853 -3.481441 2.089223 -57.824766 -1.745211 -8.694339 -7.440616 -27.670984 3.652547 0.000000 0.000000 0.000000 11.257696 -4.192232 -3.194194 61.645002 -12.497570 -15.757009 17.164000 20.422001 3.580563 0.000000 0.000000 0.000000 
0.051321 0.936800 -0.398303 -0.708781 -8.656992 -9.248764 0.700899 -0.126370 -1.755609 -4.841616 1.418599 22.960747 4.705887 9.916227 -0.767168 0.000000 0.000000 0.000000 -3.244784 1.501382 -17.481100 2.525408 2.365489 42.885745 -4.038360 -10.908694 2.744605 0.000000 0.000000 0.000000 4.336195 -0.950896 15.844050 -0.659194 0.482219 -19.739037 -1.521551 -0.374717 29.839622 8.493852 -4.018557 -28.864417 0.000000 0.000000 0.000000 -13.421306 -2.900336 1.803068 -58.568260 -0.393729 -9.425608 -6.983831 -26.651432 3.392681 0.000000 0.000000 0.000000 10.826490 -2.963365 -2.553150 61.456514 -7.627712 -13.215463 15.334855 24.201422 3.973083 0.000000 0.000000 0.000000 
0.045424 0.939917 -0.441668 -0.386508 -8.963565 -8.967080 0.988767 -0.329652 -4.351905 -4.964063 1.469638 22.502003 3.929578 8.464909 0.530442 0.000000 0.000000 0.000000 -4.706054 0.790533 -10.849124 0.070124 4.460224 48.239381 -3.221660 -8.346116 0.870947 0.000000 0.000000 0.000000 3.623912 -0.795858 14.325618 -0.691504 0.451383 -18.617406 -0.718291 1.719341 28.665784 10.152993 -4.566650 -28.809146 0.000000 0.000000 0.000000 -13.103592 -2.450004 1.239064 -58.448452 1.858719 -10.403979 -7.241899 -26.646109 3.360955 0.000000 0.000000 0.000000 12.685570 -1.180976 -1.756058 58.854919 -3.329487 -10.230493 12.094280 27.245266 3.860865 0.000000 0.000000 0.000000 
0.036396 0.936090 -0.488615 0.439327 -7.997879 -8.657373 0.712396 -0.653026 -8.101486 -5.049866 1.503384 23.883397 3.206085 7.448692 3.056001 0.000000 0.000000 0.000000 -7.524124 0.318391 -4.182918 -1.560643 5.497427 50.131336 -1.853330 -5.089903 0.953857 0.000000 0.000000 0.000000 1.878744 -0.606638 13.641588 -0.591746 0.486339 -20.207081 0.473331 2.736497 30.066654 10.252272 -4.374085 -29.214239 0.000000 0.000000 0.000000 -13.275651 -2.100963 0.876266 -58.346568 3.430382 -11.309438 -7.157801 -26.516243 3.283930 0.000000 0.000000 0.000000 12.780269 -0.617519 -1.237507 58.831008 0.399520 -8.507229 10.267387 30.636848 4.099111 0.000000 0.000000 0.000000 
0.023772 0.931423 -0.541467 0.999511 -8.574230 -7.937491 1.855823 -0.777143 -11.815632 -6.449776 2.135595 24.896123 4.330997 9.741371 4.079394 0.000000 0.000000 0.000000 -9.291190 0.272373 1.272504 -3.556233 6.649431 49.140796 -0.208906 -2.243569 3.046827 0.000000 0.000000 0.000000 1.989265 -0.578135 12.697323 -0.978022 0.559723 -19.462013 0.741212 5.531886 29.881674 10.906769 -4.306853 -29.151997 0.000000 0.000000 0.000000 -13.059096 -2.442719 0.634225 -57.892634 5.303464 -12.119878 -5.623076 -26.461518 2.782592 0.000000 0.000000 0.000000 15.645834 1.806787 0.192898 56.690861 5.613155 -5.752923 5.002003 32.444806 3.110540 0.000000 0.000000 0.000000 
0.007630 0.926835 -0.600638 1.505101 -9.861824 -6.855344 2.693842 -0.790302 -14.729049 -6.812252 2.273356 23.358199 4.844088 10.975086 7.273705 0.000000 0.000000 0.000000 -10.946648 0.482111 5.043154 -5.924812 6.982710 42.919473 2.754723 2.990637 5.454675 0.000000 0.000000 0.000000 2.175572 -0.551440 11.794754 -1.752013 0.720891 -17.202868 1.360788 8.314496 27.958100 10.508385 -3.776072 -28.413266 0.000000 0.000000 0.000000 -11.901271 -4.149108 1.090122 -58.307181 8.151336 -13.413757 -6.548698 -26.666922 2.866631 0.000000 0.000000 0.000000 16.838935 3.215962 1.268034 55.628360 9.308086 -3.823562 0.800307 34.410117 2.246653 0.000000 0.000000 0.000000 
-0.011521 0.920106 -0.663992 1.881352 -11.149475 -6.147829 3.879227 -0.662317 -18.141050 -7.056408 2.372674 22.271535 5.883033 12.757261 8.700586 0.000000 0.000000 0.000000 -12.205827 0.768711 7.403277 -5.711028 5.909396 37.427809 3.037728 6.008319 2.043278 0.000000 0.000000 0.000000 0.592737 -0.419908 13.377538 -0.237113 0.261265 -18.986180 2.037521 9.076689 28.640288 11.394990 -4.204851 -28.977607 0.000000 0.000000 0.000000 -14.351664 -3.902367 0.923805 -56.451634 9.848060 -13.771201 -6.822571 -26.514172 2.913801 0.000000 0.000000 0.000000 14.757423 4.752988 2.014751 54.867077 13.091923 -2.104997 0.328996 36.986539 2.312857 0.000000 0.000000 0.000000 
-0.033183 0.915666 -0.728030 1.845873 -12.115730 -5.593810 5.567021 -0.303396 -19.924352 -7.009066 2.232736 20.172958 6.965291 14.524356 11.233846 0.000000 0.000000 0.000000 -12.646364 0.874486 6.959588 -4.919052 4.907767 33.565483 1.624637 7.885584 -4.357408 0.000000 0.000000 0.000000 0.084150 -0.357713 14.254438 -0.197224 0.149636 -16.484381 2.945946 9.117126 26.576129 9.632283 -3.087825 -29.605076 0.000000 0.000000 0.000000 -13.861300 -3.626242 0.801618 -56.949388 11.361773 -14.315168 -7.751839 -25.380233 2.953833 0.000000 0.000000 0.000000 12.818427 6.526590 2.653114 54.329666 15.904215 -0.449727 -2.299865 39.782452 1.466799 0.000000 0.000000 0.000000 
-0.056622 0.908026 -0.790023 1.559831 -11.371002 -5.303776 7.519440 0.100069 -21.488239 -7.451493 2.135542 18.126157 7.511766 15.446168 12.543236 0.000000 0.000000 0.000000 -14.852153 1.126414 7.013282 -2.090287 3.493926 32.659050 -0.739592 3.702067 -7.446648 0.000000 0.000000 0.000000 -0.230045 -0.336349 14.626977 0.687956 -0.138365 -15.490999 3.823728 9.313569 26.951221 7.804813 -1.779583 -31.013645 0.000000 0.000000 0.000000 -14.912919 -3.259251 0.436633 -55.957578 12.434912 -14.536662 -10.930800 -24.757413 3.538542 0.000000 0.000000 0.000000 12.052331 6.878438 2.905380 52.886882 17.815997 0.383158 -3.069936 43.596560 1.441076 0.000000 0.000000 0.000000 
